subject02_running_RRA_states
nRows=9
nColumns=38

# SIMM Motion File Header:
name subject02_running_RRA_states
datacolumns 38
datarows 9
otherdata 1
range 0.91900000000000015000 0.92300000000000015000
endheader
time	pelvis_tx	pelvis_ty	pelvis_tz	pelvis_tilt	pelvis_list	pelvis_rotation	hip_flexion_r	hip_adduction_r	hip_rotation_r	knee_angle_r	ankle_angle_r	subtalar_angle_r	mtp_angle_r	hip_flexion_l	hip_adduction_l	hip_rotation_l	knee_angle_l	ankle_angle_l	subtalar_angle_l	mtp_angle_l	lumbar_extension	lumbar_bending	lumbar_rotation	arm_flex_r	arm_add_r	arm_rot_r	elbow_flex_r	pro_sup_r	wrist_flex_r	wrist_dev_r	arm_flex_l	arm_add_l	arm_rot_l	elbow_flex_l	pro_sup_l	wrist_flex_l	wrist_dev_l	
      0.91900000000000015000	      0.81945271825244348000	      0.94828038056657393000	     -0.19762083244593404000	      5.18520055640707070000	      1.90698835590992880000	     -1.20590672836608200000	     31.31469525929622200000	     -2.83882365203114470000	     -0.12327147701628545000	   -102.25775891346538000000	      2.00976513649783730000	     -0.00000000000000001065	     -0.00000000000000057679	      4.65640241334056530000	      7.58551894198995940000	      0.24625872937355395000	    -45.42167954918628700000	     21.48190024871403400000	     -0.00000000000002364555	      0.00000000000002308715	    -13.45774673320979700000	     -3.09539768781654300000	     -1.56647917414091880000	    -16.44128759379216100000	    -27.63804868766224800000	     20.69669577642844500000	     58.56784163400773500000	    106.98617102110686000000	     -0.00000000000001057042	     -0.00000000000000943544	     -5.37366406346358970000	    -30.02084542097691200000	      2.07128109847526430000	     89.18634784358037800000	    111.91252912707607000000	     -0.00000000000000031258	     -0.00000000000000243443
      0.91950000000000010000	      0.81953566150051282000	      0.94856107607912454000	     -0.19765176547668828000	      5.16498649815671220000	      1.88054707113850770000	     -1.19688949622960370000	     31.45614260511978000000	     -2.80253340018351200000	     -0.16154818245620065000	   -102.11463455262952000000	      2.07808705348268270000	     -0.00000000000000001254	     -0.00000000000000056787	      4.43422321042889060000	      7.55408989858246380000	      0.29244719734177005000	    -45.20242984160409300000	     21.39378426920829000000	     -0.00000000000002408628	      0.00000000000002344120	    -13.42194229488934800000	     -3.06521433732031670000	     -1.65463820677440010000	    -16.53415375779928100000	    -27.64030687054103600000	     20.70160517216439200000	     58.55649248121698500000	    106.95067867239825000000	     -0.00000000000001059426	     -0.00000000000000946444	     -5.35350608802029980000	    -29.99686267086263700000	      2.03261002182281560000	     89.27223298603689700000	    111.92897582034280000000	     -0.00000000000000030780	     -0.00000000000000247391
      0.92000000000000015000	      0.81962038778076030000	      0.94884329941634271000	     -0.19768229665894410000	      5.14468093415526440000	      1.85394616824975800000	     -1.18787131838630100000	     31.59636064740779900000	     -2.76611401372358980000	     -0.20029094242627010000	   -101.96925828300560000000	      2.14623820730594210000	     -0.00000000000000001420	     -0.00000000000000056041	      4.21171683433385620000	      7.52227206374271610000	      0.33855521514254994000	    -44.98194482378995900000	     21.30377548355062000000	     -0.00000000000002451030	      0.00000000000002373951	    -13.38588374283673800000	     -3.03489082165093290000	     -1.74268545105268280000	    -16.62759398824797700000	    -27.64269798800731700000	     20.70581007697643700000	     58.54551010869055000000	    106.91541589542038000000	     -0.00000000000001061717	     -0.00000000000000949154	     -5.33371522997109260000	    -29.97289870689324000000	      1.99420814490066940000	     89.35835645940764500000	    111.94554993585220000000	     -0.00000000000000030326	     -0.00000000000000251538
      0.92050000000000010000	      0.81970688996781305000	      0.94912702625921996000	     -0.19771242292535859000	      5.12428582305498190000	      1.82718911612734240000	     -1.17885400659875810000	     31.73533932416297500000	     -2.72956839949186140000	     -0.23949338763190473000	   -101.82162795576461000000	      2.21421257292800440000	     -0.00000000000000001566	     -0.00000000000000055157	      3.98889536208866070000	      7.49006985507859020000	      0.38457446631242653000	    -44.76024663323264000000	     21.21187308905964700000	     -0.00000000000002492250	      0.00000000000002403390	    -13.34957404741232500000	     -3.00443180023647690000	     -1.83061696612234210000	    -16.72160535645910800000	    -27.64521945221172700000	     20.70931063885833000000	     58.53488860110645200000	    106.88038259789813000000	     -0.00000000000001063988	     -0.00000000000000951975	     -5.31428687049113700000	    -29.94895409710236600000	      1.95608069752119550000	     89.44471307255246000000	    111.96224875402218000000	     -0.00000000000000029837	     -0.00000000000000255699
      0.92100000000000015000	      0.81979516086599580000	      0.94941223237501993000	     -0.19774214126012044000	      5.10380329302438260000	      1.80027935705594300000	     -1.16983937507646680000	     31.87306848509728500000	     -2.69289941136994180000	     -0.27914901525706293000	   -101.67174158367627000000	      2.28200415590968440000	     -0.00000000000000001756	     -0.00000000000000054325	      3.76577061456779780000	      7.45748771322669410000	      0.43049667220277299000	    -44.53735742317976300000	     21.11807867528175100000	     -0.00000000000002533237	      0.00000000000002426243	    -13.31301634010498700000	     -2.97384189389818370000	     -1.91842882146012330000	    -16.81618488053464200000	    -27.64786869635982600000	     20.71210709604142500000	     58.52462212487017000000	    106.84557862485197000000	     -0.00000000000001066255	     -0.00000000000000954892	     -5.29521640828065900000	    -29.92502938795559000000	      1.91823284845223040000	     89.53129763347610000000	    111.97906950591560000000	     -0.00000000000000029310	     -0.00000000000000259904
      0.92150000000000010000	      0.81988519286641715000	      0.94969889323770140000	     -0.19777144868966318000	      5.08323533412472360000	      1.77322039885574450000	     -1.16082922024677980000	     32.00953828185017600000	     -2.65610992381958600000	     -0.31925121360233877000	   -101.51959727567390000000	      2.34960688702003620000	     -0.00000000000000002079	     -0.00000000000000053370	      3.54235472115211980000	      7.42453018197999980000	      0.47631350118798788000	    -44.31329955288444500000	     21.02239202630642700000	     -0.00000000000002576458	      0.00000000000002453333	    -13.27621362480291000000	     -2.94312578683780760000	     -2.00611710881322970000	    -16.91132952554250600000	    -27.65064309381966400000	     20.71419973242555900000	     58.51470482960989000000	    106.81100381110284000000	     -0.00000000000001068523	     -0.00000000000000957760	     -5.27649922992819410000	    -29.90112514056278700000	      1.88066974706012810000	     89.61810494037557400000	    111.99600938875443000000	     -0.00000000000000028831	     -0.00000000000000264082
      0.92200000000000015000	      0.81997697829090177000	      0.94998698441083707000	     -0.19780034228283055000	      5.06258410602237510000	      1.74601572369041440000	     -1.15182535236866350000	     32.14473878458064600000	     -2.61920275368749200000	     -0.35979322871783487000	   -101.36519331249215000000	      2.41701473162343290000	     -0.00000000000000002371	     -0.00000000000000052336	      3.31865954653740180000	      7.39120182930565670000	      0.52201666446232209000	    -44.08809537294362700000	     20.92481520061916500000	     -0.00000000000002623202	      0.00000000000002487778	    -13.23916906726117500000	     -2.91228812662848610000	     -2.09367791845729510000	    -17.00703620114555300000	    -27.65354004224600000000	     20.71558892259128400000	     58.50513094809595300000	    106.77665792867471000000	     -0.00000000000001070783	     -0.00000000000000960690	     -5.25813074315611930000	    -29.87724189345830400000	      1.84339647882001520000	     89.70512979194525400000	    112.01306555359672000000	     -0.00000000000000028234	     -0.00000000000000268324
      0.92250000000000010000	      0.82007050904704726000	      0.95027648116129926000	     -0.19782881916673797000	      5.04185162835395760000	      1.71866887650846900000	     -1.14282955095416950000	     32.27866036655866800000	     -2.58218074218110740000	     -0.40076821321340006000	   -101.20852807182504000000	      2.48422158241818370000	     -0.00000000000000002604	     -0.00000000000000051242	      3.09469726984509830000	      7.35750731920762830000	      0.56759782071476350000	    -43.86176746130433200000	     20.82534851368742300000	     -0.00000000000002673948	      0.00000000000002531017	    -13.20188570500339200000	     -2.88133361862466900000	     -2.18110737397427590000	    -17.10330176382696600000	    -27.65655687971935400000	     20.71627508553385900000	     58.49589469818617700000	    106.74254074115628000000	     -0.00000000000001072978	     -0.00000000000000963758	     -5.24010634556654860000	    -29.85338020149471200000	      1.80641810859579180000	     89.79236697869430400000	    112.03023511803116000000	     -0.00000000000000027496	     -0.00000000000000272882
      0.92300000000000015000	      0.82016577697540249000	      0.95056735884842158000	     -0.19785687650124770000	      5.02104009051795600000	      1.69118337708678410000	     -1.13384362102331850000	     32.41129332601644800000	     -2.54504666767213590000	     -0.44216916921560634000	   -101.04960011329352000000	      2.55122137096101520000	     -0.00000000000000002780	     -0.00000000000000050086	      2.87047979546063740000	      7.32345134087245770000	      0.61304867678842367000	    -43.63433836024604800000	     20.72399447938849100000	     -0.00000000000002726649	      0.00000000000002576697	    -13.16436673820302300000	     -2.85026693309180870000	     -2.26840158524560920000	    -17.20012301270898900000	    -27.65969097218359700000	     20.71625873122861700000	     58.48699038242207800000	    106.70865194927715000000	     -0.00000000000001075196	     -0.00000000000000966924	     -5.22242145948343680000	    -29.82954059584273700000	      1.76973963460573100000	     89.87981129290447800000	    112.04751515690508000000	     -0.00000000000000026775	     -0.00000000000000277426
